<?xml version="1.0" encoding="UTF-8" standalone="no"?>
<!-- Created with Inkscape (http://www.inkscape.org/) -->

<svg
   xmlns:dc="http://purl.org/dc/elements/1.1/"
   xmlns:cc="http://creativecommons.org/ns#"
   xmlns:rdf="http://www.w3.org/1999/02/22-rdf-syntax-ns#"
   xmlns:svg="http://www.w3.org/2000/svg"
   xmlns="http://www.w3.org/2000/svg"
   xmlns:sodipodi="http://sodipodi.sourceforge.net/DTD/sodipodi-0.dtd"
   xmlns:inkscape="http://www.inkscape.org/namespaces/inkscape"
   width="210mm"
   height="297mm"
   viewBox="0 0 210 297"
   version="1.1"
   id="svg8"
   inkscape:version="0.92.4 (5da689c313, 2019-01-14)"
   sodipodi:docname="panel_rear.svg">
  <defs
     id="defs2">
    <marker
       style="overflow:visible"
       refY="0.0"
       refX="0.0"
       orient="auto"
       id="DistanceX">
      <path
         id="path819"
         style="stroke:#000000; stroke-width:0.5"
         d="M 3,-3 L -3,3 M 0,-5 L  0,5" />
    </marker>
    <pattern
       y="0"
       x="0"
       width="8"
       patternUnits="userSpaceOnUse"
       id="Hatch"
       height="8">
      <path
         id="path822"
         stroke-width="0.25"
         stroke="#000000"
         linecap="square"
         d="M8 4 l-4,4" />
      <path
         id="path824"
         stroke-width="0.25"
         stroke="#000000"
         linecap="square"
         d="M6 2 l-4,4" />
      <path
         id="path826"
         stroke-width="0.25"
         stroke="#000000"
         linecap="square"
         d="M4 0 l-4,4" />
    </pattern>
    <symbol
       id="*MODEL_SPACE" />
    <symbol
       id="*PAPER_SPACE" />
    <marker
       style="overflow:visible"
       refY="0.0"
       refX="0.0"
       orient="auto"
       id="DistanceX-4">
      <path
         id="path873"
         style="stroke:#000000; stroke-width:0.5"
         d="M 3,-3 L -3,3 M 0,-5 L  0,5" />
    </marker>
    <pattern
       y="0"
       x="0"
       width="8"
       patternUnits="userSpaceOnUse"
       id="Hatch-2"
       height="8">
      <path
         id="path876"
         stroke-width="0.25"
         stroke="#000000"
         linecap="square"
         d="M8 4 l-4,4" />
      <path
         id="path878"
         stroke-width="0.25"
         stroke="#000000"
         linecap="square"
         d="M6 2 l-4,4" />
      <path
         id="path880"
         stroke-width="0.25"
         stroke="#000000"
         linecap="square"
         d="M4 0 l-4,4" />
    </pattern>
    <symbol
       id="*MODEL_SPACE-5" />
    <symbol
       id="*PAPER_SPACE-6" />
  </defs>
  <sodipodi:namedview
     id="base"
     pagecolor="#ffffff"
     bordercolor="#666666"
     borderopacity="1.0"
     inkscape:pageopacity="0.0"
     inkscape:pageshadow="2"
     inkscape:zoom="5.6568542"
     inkscape:cx="332.9987"
     inkscape:cy="701.98225"
     inkscape:document-units="mm"
     inkscape:current-layer="layer3"
     showgrid="true"
     inkscape:snap-bbox="true"
     inkscape:bbox-nodes="true"
     inkscape:snap-bbox-midpoints="true"
     inkscape:snap-nodes="false"
     inkscape:window-width="2560"
     inkscape:window-height="1377"
     inkscape:window-x="-8"
     inkscape:window-y="-8"
     inkscape:window-maximized="1">
    <inkscape:grid
       type="xygrid"
       id="grid815"
       units="mm"
       spacingx="0.25"
       spacingy="0.25" />
  </sodipodi:namedview>
  <metadata
     id="metadata5">
    <rdf:RDF>
      <cc:Work
         rdf:about="">
        <dc:format>image/svg+xml</dc:format>
        <dc:type
           rdf:resource="http://purl.org/dc/dcmitype/StillImage" />
        <dc:title></dc:title>
      </cc:Work>
    </rdf:RDF>
  </metadata>
  <g
     inkscape:label="F.Fab"
     inkscape:groupmode="layer"
     id="layer1"
     style="display:inline"
     sodipodi:insensitive="true">
    <path
       inkscape:connector-curvature="0"
       d="m 96.25,110.64999 a 7.5,7.5 0 1 0 -15,0 7.5,7.5 0 1 0 15,0 z"
       style="fill:none;stroke:#000000;stroke-width:0.26458332"
       id="path887" />
    <path
       inkscape:connector-curvature="0"
       d="m 118.5,121.75 a 1.4999999,1.4999999 0 0 1 -1.5,1.5 H 60.500001 a 1.4999999,1.4999999 0 0 1 -1.500002,-1.5 v -19.5 a 1.4999999,1.4999999 0 0 1 1.500002,-1.5 H 117 a 1.4999999,1.4999999 0 0 1 1.5,1.5 z"
       style="fill:none;stroke:#000000;stroke-width:0.26458332"
       id="path889" />
  </g>
  <g
     inkscape:groupmode="layer"
     id="layer3"
     inkscape:label="F.SilkS">
    <g
       id="g1025">
      <path
         d="m 84.3389,119.29363 q -0.242534,0 -0.376204,0.17915 -0.13367,0.17914 -0.13367,0.50436 0,0.32384 0.13367,0.50298 0.13367,0.17915 0.376204,0.17915 0.243913,0 0.377583,-0.17915 0.133669,-0.17914 0.133669,-0.50298 0,-0.32522 -0.133669,-0.50436 -0.13367,-0.17915 -0.377583,-0.17915 z m 0,-0.38447 q 0.496094,0 0.777214,0.28387 0.28112,0.28388 0.28112,0.78411 0,0.49885 -0.28112,0.78272 -0.28112,0.28388 -0.777214,0.28388 -0.494715,0 -0.777213,-0.28388 -0.28112,-0.28387 -0.28112,-0.78272 0,-0.50023 0.28112,-0.78411 0.282498,-0.28387 0.777213,-0.28387 z"
         style="font-style:normal;font-variant:normal;font-weight:bold;font-stretch:normal;font-size:2.82222223px;line-height:1.25;font-family:sans-serif;-inkscape-font-specification:'sans-serif, Bold';font-variant-ligatures:normal;font-variant-caps:normal;font-variant-numeric:normal;font-feature-settings:normal;text-align:start;letter-spacing:0px;word-spacing:0px;writing-mode:lr-tb;text-anchor:start;fill:#000000;fill-opacity:1;stroke:none;stroke-width:0.26458332"
         id="path1000"
         inkscape:connector-curvature="0" />
      <path
         d="m 85.75828,120.40295 v -0.94258 h 0.496093 v 0.15434 q 0,0.12541 -0.0014,0.31557 -0.0014,0.1888 -0.0014,0.25219 0,0.18603 0.0096,0.26871 0.0096,0.0813 0.03307,0.11851 0.03032,0.0482 0.07855,0.0744 0.04961,0.0262 0.112999,0.0262 0.15434,0 0.242534,-0.11851 0.08819,-0.11851 0.08819,-0.32935 v -0.76206 h 0.493338 v 1.54341 h -0.493338 v -0.22325 q -0.111621,0.13505 -0.237023,0.19982 -0.124023,0.0634 -0.274229,0.0634 -0.26734,0 -0.4079,-0.16399 -0.139181,-0.16398 -0.139181,-0.4768 z"
         style="font-style:normal;font-variant:normal;font-weight:bold;font-stretch:normal;font-size:2.82222223px;line-height:1.25;font-family:sans-serif;-inkscape-font-specification:'sans-serif, Bold';font-variant-ligatures:normal;font-variant-caps:normal;font-variant-numeric:normal;font-feature-settings:normal;text-align:start;letter-spacing:0px;word-spacing:0px;writing-mode:lr-tb;text-anchor:start;fill:#000000;fill-opacity:1;stroke:none;stroke-width:0.26458332"
         id="path1002"
         inkscape:connector-curvature="0" />
      <path
         d="m 88.325565,119.02216 v 0.43821 h 0.508496 v 0.35278 h -0.508496 v 0.65457 q 0,0.10749 0.04272,0.14607 0.04272,0.0372 0.169499,0.0372 h 0.253559 v 0.35278 h -0.423058 q -0.292144,0 -0.414789,-0.12127 -0.121268,-0.12265 -0.121268,-0.41479 v -0.65457 h -0.245291 v -0.35278 h 0.245291 v -0.43821 z"
         style="font-style:normal;font-variant:normal;font-weight:bold;font-stretch:normal;font-size:2.82222223px;line-height:1.25;font-family:sans-serif;-inkscape-font-specification:'sans-serif, Bold';font-variant-ligatures:normal;font-variant-caps:normal;font-variant-numeric:normal;font-feature-settings:normal;text-align:start;letter-spacing:0px;word-spacing:0px;writing-mode:lr-tb;text-anchor:start;fill:#000000;fill-opacity:1;stroke:none;stroke-width:0.26458332"
         id="path1004"
         inkscape:connector-curvature="0" />
      <path
         d="m 89.630567,120.78053 v 0.81029 h -0.493338 v -2.13045 h 0.493338 v 0.226 q 0.101975,-0.13505 0.225998,-0.19844 0.124024,-0.0648 0.285254,-0.0648 0.285254,0 0.468533,0.22737 0.183279,0.226 0.183279,0.58291 0,0.35692 -0.183279,0.58429 -0.183279,0.226 -0.468533,0.226 -0.16123,0 -0.285254,-0.0634 -0.124023,-0.0648 -0.225998,-0.19982 z m 0.327973,-0.99907 q -0.158474,0 -0.243913,0.11713 -0.08406,0.11576 -0.08406,0.33486 0,0.21911 0.08406,0.33624 0.08544,0.11576 0.243913,0.11576 0.158474,0 0.241157,-0.11576 0.08406,-0.11575 0.08406,-0.33624 0,-0.22048 -0.08406,-0.33624 -0.08268,-0.11575 -0.241157,-0.11575 z"
         style="font-style:normal;font-variant:normal;font-weight:bold;font-stretch:normal;font-size:2.82222223px;line-height:1.25;font-family:sans-serif;-inkscape-font-specification:'sans-serif, Bold';font-variant-ligatures:normal;font-variant-caps:normal;font-variant-numeric:normal;font-feature-settings:normal;text-align:start;letter-spacing:0px;word-spacing:0px;writing-mode:lr-tb;text-anchor:start;fill:#000000;fill-opacity:1;stroke:none;stroke-width:0.26458332"
         id="path1006"
         inkscape:connector-curvature="0" />
      <path
         d="m 91.143653,120.40295 v -0.94258 h 0.496094 v 0.15434 q 0,0.12541 -0.0014,0.31557 -0.0014,0.1888 -0.0014,0.25219 0,0.18603 0.0096,0.26871 0.0096,0.0813 0.03307,0.11851 0.03032,0.0482 0.07855,0.0744 0.04961,0.0262 0.112999,0.0262 0.15434,0 0.242535,-0.11851 0.08819,-0.11851 0.08819,-0.32935 v -0.76206 h 0.493338 v 1.54341 h -0.493338 v -0.22325 q -0.111621,0.13505 -0.237022,0.19982 -0.124024,0.0634 -0.27423,0.0634 -0.267339,0 -0.407899,-0.16399 -0.139182,-0.16398 -0.139182,-0.4768 z"
         style="font-style:normal;font-variant:normal;font-weight:bold;font-stretch:normal;font-size:2.82222223px;line-height:1.25;font-family:sans-serif;-inkscape-font-specification:'sans-serif, Bold';font-variant-ligatures:normal;font-variant-caps:normal;font-variant-numeric:normal;font-feature-settings:normal;text-align:start;letter-spacing:0px;word-spacing:0px;writing-mode:lr-tb;text-anchor:start;fill:#000000;fill-opacity:1;stroke:none;stroke-width:0.26458332"
         id="path1008"
         inkscape:connector-curvature="0" />
      <path
         d="m 93.710938,119.02216 v 0.43821 h 0.508496 v 0.35278 h -0.508496 v 0.65457 q 0,0.10749 0.04272,0.14607 0.04272,0.0372 0.169499,0.0372 h 0.253559 v 0.35278 h -0.423058 q -0.292144,0 -0.414789,-0.12127 -0.121268,-0.12265 -0.121268,-0.41479 v -0.65457 H 92.97231 v -0.35278 h 0.24529 v -0.43821 z"
         style="font-style:normal;font-variant:normal;font-weight:bold;font-stretch:normal;font-size:2.82222223px;line-height:1.25;font-family:sans-serif;-inkscape-font-specification:'sans-serif, Bold';font-variant-ligatures:normal;font-variant-caps:normal;font-variant-numeric:normal;font-feature-settings:normal;text-align:start;letter-spacing:0px;word-spacing:0px;writing-mode:lr-tb;text-anchor:start;fill:#000000;fill-opacity:1;stroke:none;stroke-width:0.26458332"
         id="path1010"
         inkscape:connector-curvature="0" />
    </g>
  </g>
  <g
     inkscape:label="F.SilkS_text"
     id="g998"
     inkscape:groupmode="layer"
     style="display:none">
    <text
       id="text996"
       y="121.00378"
       x="83.140007"
       style="font-style:normal;font-variant:normal;font-weight:bold;font-stretch:normal;font-size:2.82222223px;line-height:1.25;font-family:sans-serif;-inkscape-font-specification:'sans-serif, Bold';font-variant-ligatures:normal;font-variant-caps:normal;font-variant-numeric:normal;font-feature-settings:normal;text-align:start;letter-spacing:0px;word-spacing:0px;writing-mode:lr-tb;text-anchor:start;fill:#000000;fill-opacity:1;stroke:none;stroke-width:0.26458332"
       xml:space="preserve"><tspan
         style="font-style:normal;font-variant:normal;font-weight:bold;font-stretch:normal;font-size:2.82222223px;font-family:sans-serif;-inkscape-font-specification:'sans-serif, Bold';font-variant-ligatures:normal;font-variant-caps:normal;font-variant-numeric:normal;font-feature-settings:normal;text-align:start;writing-mode:lr-tb;text-anchor:start;stroke-width:0.26458332"
         y="121.00378"
         x="83.140007"
         id="tspan994"
         sodipodi:role="line">Output</tspan></text>
  </g>
</svg>
